<?xml version="1.0" encoding="UTF-8" standalone="no"?>
<svg
   width="512"
   height="512"
   version="1.1"
   id="svg1"
   xml:space="preserve"
   xmlns="http://www.w3.org/2000/svg"
   xmlns:svg="http://www.w3.org/2000/svg"><defs
     id="defs1"><path
       id="a"
       d="M10.253 23.335h84.531V70.19H10.253z" /></defs><circle
     cx="256"
     cy="256"
     r="256"
     data-name="Ellipse 8"
     style="display:inline;fill:#dd0031;stroke-width:5.0355"
     id="circle1" /><path
     id="rect1"
     style="opacity:1;fill:#ffffff;fill-opacity:1;stroke-width:0.456105"
     d="m 408.86834,90.085222 c -28.94168,-7.871661 -106.54525,14.287148 -106.54525,14.287148 0,0 31.84383,17.76001 53.52053,38.73757 20.97756,21.67671 38.73757,53.52053 38.73757,53.52053 0,0 22.15881,-77.60357 14.28715,-106.545248 z m -63.22943,63.229428 c -31.24282,-30.88197 -64.28457,-40.08825 -64.28457,-40.08825 0,0 -45.42849,29.12112 -78.97637,67.32844 -33.54791,38.2073 -88.2972,128.8343 -88.2972,128.8343 l 37.74183,37.74183 37.74182,37.74182 c 0,0 90.627,-54.74929 128.8343,-88.29719 38.20732,-33.54789 67.32844,-78.97638 67.32844,-78.97638 0,0 -9.20628,-33.04175 -40.08825,-64.28457 z M 184.9047,179.85602 c 0,0 -70.59138,11.88196 -95.053388,24.22946 -24.461999,12.34747 -42.632182,61.27108 -42.632182,61.27108 l 75.94907,0.93222 c 0,0 19.80192,-30.51949 28.88779,-42.86697 9.08592,-12.34748 32.84871,-43.56579 32.84871,-43.56579 z m 134.19284,134.19284 c 0,0 -31.21831,23.76279 -43.56579,32.84871 -12.34748,9.08587 -42.86697,28.8878 -42.86697,28.8878 l 0.93223,75.94906 c 0,0 48.9236,-18.17018 61.27107,-42.63218 12.3475,-24.46201 24.22946,-95.05339 24.22946,-95.05339 z m -222.488663,-0.23339 -51.25419,24.22946 57.776973,57.77697 57.77697,57.77697 24.22946,-51.25419 -44.2646,-44.2646 z" /></svg>
